
<svg width="960" height="300" xmlns="http://www.w3.org/2000/svg" xmlns:xlink="http://www.w3.org/1999/xlink">
  <path d="M0 167L14.5 169C29 171 58 175 87.2 175.7C116.3 176.3 145.7 173.7 174.8 168.2C204 162.7 233 154.3 262 153.3C291 152.3 320 158.7 349 168.5C378 178.3 407 191.7 436.2 194.8C465.3 198 494.7 191 523.8 186.7C553 182.3 582 180.7 611 181.2C640 181.7 669 184.3 698 189.3C727 194.3 756 201.7 785.2 202.3C814.3 203 843.7 197 872.8 193C902 189 931 187 945.5 186L960 185L960 0L945.5 0C931 0 902 0 872.8 0C843.7 0 814.3 0 785.2 0C756 0 727 0 698 0C669 0 640 0 611 0C582 0 553 0 523.8 0C494.7 0 465.3 0 436.2 0C407 0 378 0 349 0C320 0 291 0 262 0C233 0 204 0 174.8 0C145.7 0 116.3 0 87.2 0C58 0 29 0 14.5 0L0 0Z" fill="#060605"/>
  <path d="M0 122L14.5 126.3C29 130.7 58 139.3 87.2 147.8C116.3 156.3 145.7 164.7 174.8 169C204 173.3 233 173.7 262 165.2C291 156.7 320 139.3 349 137.2C378 135 407 148 436.2 156.2C465.3 164.3 494.7 167.7 523.8 163.3C553 159 582 147 611 142.3C640 137.7 669 140.3 698 147.7C727 155 756 167 785.2 163.7C814.3 160.3 843.7 141.7 872.8 133.7C902 125.7 931 128.3 945.5 129.7L960 131L960 0L945.5 0C931 0 902 0 872.8 0C843.7 0 814.3 0 785.2 0C756 0 727 0 698 0C669 0 640 0 611 0C582 0 553 0 523.8 0C494.7 0 465.3 0 436.2 0C407 0 378 0 349 0C320 0 291 0 262 0C233 0 204 0 174.8 0C145.7 0 116.3 0 87.2 0C58 0 29 0 14.5 0L0 0Z" fill="#242320"/>
  <path d="M0 105L14.5 105.8C29 106.7 58 108.3 87.2 116.3C116.3 124.3 145.7 138.7 174.8 145.3C204 152 233 151 262 142.3C291 133.7 320 117.3 349 111C378 104.7 407 108.3 436.2 113.3C465.3 118.3 494.7 124.7 523.8 131.7C553 138.7 582 146.3 611 149.2C640 152 669 150 698 146.5C727 143 756 138 785.2 138.5C814.3 139 843.7 145 872.8 147.3C902 149.7 931 148.3 945.5 147.7L960 147L960 0L945.5 0C931 0 902 0 872.8 0C843.7 0 814.3 0 785.2 0C756 0 727 0 698 0C669 0 640 0 611 0C582 0 553 0 523.8 0C494.7 0 465.3 0 436.2 0C407 0 378 0 349 0C320 0 291 0 262 0C233 0 204 0 174.8 0C145.7 0 116.3 0 87.2 0C58 0 29 0 14.5 0L0 0Z" fill="#413d36"/>
  <path d="M0 100L14.5 103.8C29 107.7 58 115.3 87.2 119C116.3 122.7 145.7 122.3 174.8 114.7C204 107 233 92 262 84.2C291 76.3 320 75.7 349 81.2C378 86.7 407 98.3 436.2 104.2C465.3 110 494.7 110 523.8 110.7C553 111.3 582 112.7 611 115.5C640 118.3 669 122.7 698 116.2C727 109.7 756 92.3 785.2 88.2C814.3 84 843.7 93 872.8 100.7C902 108.3 931 114.7 945.5 117.8L960 121L960 0L945.5 0C931 0 902 0 872.8 0C843.7 0 814.3 0 785.2 0C756 0 727 0 698 0C669 0 640 0 611 0C582 0 553 0 523.8 0C494.7 0 465.3 0 436.2 0C407 0 378 0 349 0C320 0 291 0 262 0C233 0 204 0 174.8 0C145.7 0 116.3 0 87.2 0C58 0 29 0 14.5 0L0 0Z" fill="#61594f"/>
  <path d="M0 52L14.5 58.3C29 64.7 58 77.3 87.2 78.5C116.3 79.7 145.7 69.3 174.8 63.2C204 57 233 55 262 61C291 67 320 81 349 81.7C378 82.3 407 69.7 436.2 67.3C465.3 65 494.7 73 523.8 74.7C553 76.3 582 71.7 611 68.3C640 65 669 63 698 65.5C727 68 756 75 785.2 79.3C814.3 83.7 843.7 85.3 872.8 83.2C902 81 931 75 945.5 72L960 69L960 0L945.5 0C931 0 902 0 872.8 0C843.7 0 814.3 0 785.2 0C756 0 727 0 698 0C669 0 640 0 611 0C582 0 553 0 523.8 0C494.7 0 465.3 0 436.2 0C407 0 378 0 349 0C320 0 291 0 262 0C233 0 204 0 174.8 0C145.7 0 116.3 0 87.2 0C58 0 29 0 14.5 0L0 0Z" fill="#84756a"/>
  <path d="M0 52L14.5 49.7C29 47.3 58 42.7 87.2 43.8C116.3 45 145.7 52 174.8 52.3C204 52.7 233 46.3 262 48C291 49.7 320 59.3 349 64.7C378 70 407 71 436.2 67.7C465.3 64.3 494.7 56.7 523.8 56.7C553 56.7 582 64.3 611 62C640 59.7 669 47.3 698 41C727 34.7 756 34.3 785.2 35.8C814.3 37.3 843.7 40.7 872.8 41.7C902 42.7 931 41.3 945.5 40.7L960 40L960 0L945.5 0C931 0 902 0 872.8 0C843.7 0 814.3 0 785.2 0C756 0 727 0 698 0C669 0 640 0 611 0C582 0 553 0 523.8 0C494.7 0 465.3 0 436.2 0C407 0 378 0 349 0C320 0 291 0 262 0C233 0 204 0 174.8 0C145.7 0 116.3 0 87.2 0C58 0 29 0 14.5 0L0 0Z" fill="#a99386"/>
  <path d="M0 29L14.5 29.3C29 29.7 58 30.3 87.2 31.7C116.3 33 145.7 35 174.8 33.7C204 32.3 233 27.7 262 28.5C291 29.3 320 35.7 349 34.7C378 33.7 407 25.3 436.2 20.7C465.3 16 494.7 15 523.8 14.2C553 13.3 582 12.7 611 17.5C640 22.3 669 32.7 698 34.3C727 36 756 29 785.2 27.2C814.3 25.3 843.7 28.7 872.8 32.3C902 36 931 40 945.5 42L960 44L960 0L945.5 0C931 0 902 0 872.8 0C843.7 0 814.3 0 785.2 0C756 0 727 0 698 0C669 0 640 0 611 0C582 0 553 0 523.8 0C494.7 0 465.3 0 436.2 0C407 0 378 0 349 0C320 0 291 0 262 0C233 0 204 0 174.8 0C145.7 0 116.3 0 87.2 0C58 0 29 0 14.5 0L0 0Z" fill="#d0b1a6"/>
</svg>